<?xml version="1.0" encoding="UTF-8" standalone="no"?>
<!DOCTYPE svg PUBLIC "-//W3C//DTD SVG 1.1//EN" "http://www.w3.org/Graphics/SVG/1.1/DTD/svg11.dtd">
<svg version="1.1" xmlns="http://www.w3.org/2000/svg" xmlns:xlink="http://www.w3.org/1999/xlink" preserveAspectRatio="xMidYMid meet" viewBox="0 0 128 128" width="128" height="128"><defs><path d="M16 12L116 12L116 112L16 112L16 12Z" id="a3kayWEC66"></path><path d="M7 23.67L99 23.67L99 42.33L7 42.33L7 23.67Z" id="c1Dd2Oq77"></path><path d="M26 92C26 97.67 21.52 102.28 16 102.28C10.48 102.28 6 97.67 6 92C6 86.33 10.48 81.72 16 81.72C21.52 81.72 26 86.33 26 92Z" id="a3KAebb99b"></path><path d="M122.12 83.56C124.84 83.56 127.04 85.76 127.04 88.47C127.04 90.87 127.04 93.13 127.04 95.53C127.04 98.24 124.84 100.44 122.12 100.44C112.29 100.44 87.71 100.44 77.88 100.44C75.16 100.44 72.96 98.24 72.96 95.53C72.96 93.13 72.96 90.87 72.96 88.47C72.96 85.76 75.16 83.56 77.88 83.56C87.71 83.56 112.29 83.56 122.12 83.56Z" id="cXHQGctTR"></path><path d="M7 54L99 54L99 72.66L7 72.66L7 54Z" id="a9NJ7I4ET"></path></defs><g><g><g><use xlink:href="#a3kayWEC66" opacity="1" fill="#8800a5" fill-opacity="1"></use><g><use xlink:href="#a3kayWEC66" opacity="1" fill-opacity="0" stroke="#8800a5" stroke-width="1" stroke-opacity="1"></use></g></g><g><use xlink:href="#c1Dd2Oq77" opacity="1" fill="#ffffff" fill-opacity="1"></use><g><use xlink:href="#c1Dd2Oq77" opacity="1" fill-opacity="0" stroke="#8800a5" stroke-width="3" stroke-opacity="1"></use></g></g><g><use xlink:href="#a3KAebb99b" opacity="1" fill="#8800a5" fill-opacity="1"></use><g><use xlink:href="#a3KAebb99b" opacity="1" fill-opacity="0" stroke="#ffffff" stroke-width="3" stroke-opacity="1"></use></g></g><g><use xlink:href="#cXHQGctTR" opacity="1" fill="#8800a5" fill-opacity="1"></use><g><use xlink:href="#cXHQGctTR" opacity="1" fill-opacity="0" stroke="#ffffff" stroke-width="3" stroke-opacity="1"></use></g></g><g><use xlink:href="#a9NJ7I4ET" opacity="1" fill="#ffffff" fill-opacity="1"></use><g><use xlink:href="#a9NJ7I4ET" opacity="1" fill-opacity="0" stroke="#8800a5" stroke-width="3" stroke-opacity="1"></use></g></g></g></g></svg>