<svg width="702" height="395" viewBox="0 0 702 395" fill="none" xmlns="http://www.w3.org/2000/svg">
<g filter="url(#filter0_d)">
<rect x="243" y="302" width="164" height="50" rx="25" fill="#80007A"/>
</g>
<line x1="373.5" y1="327.5" x2="372.5" y2="327.5" stroke="#E600DB" stroke-width="3" stroke-linecap="round"/>
<path d="M397.561 328.561C398.146 327.975 398.146 327.025 397.561 326.439L388.015 316.893C387.429 316.308 386.479 316.308 385.893 316.893C385.308 317.479 385.308 318.429 385.893 319.015L394.379 327.5L385.893 335.985C385.308 336.571 385.308 337.521 385.893 338.107C386.479 338.692 387.429 338.692 388.015 338.107L397.561 328.561ZM373.5 329H396.5V326H373.5V329Z" fill="#E600DB"/>
<path d="M322.18 326.448C322.912 326.652 323.476 327.024 323.872 327.564C324.28 328.104 324.484 328.764 324.484 329.544C324.484 330.624 324.094 331.47 323.314 332.082C322.546 332.694 321.484 333 320.128 333H314.368V320.31H319.948C321.268 320.31 322.3 320.604 323.044 321.192C323.8 321.768 324.178 322.578 324.178 323.622C324.178 324.294 323.998 324.876 323.638 325.368C323.29 325.86 322.804 326.22 322.18 326.448ZM316.636 325.656H319.57C321.166 325.656 321.964 325.062 321.964 323.874C321.964 323.274 321.766 322.83 321.37 322.542C320.974 322.254 320.374 322.11 319.57 322.11H316.636V325.656ZM319.876 331.2C320.716 331.2 321.328 331.05 321.712 330.75C322.096 330.45 322.288 329.982 322.288 329.346C322.288 328.71 322.09 328.236 321.694 327.924C321.31 327.612 320.704 327.456 319.876 327.456H316.636V331.2H319.876ZM330.471 333.144C329.571 333.144 328.779 332.958 328.095 332.586C327.423 332.214 326.901 331.68 326.529 330.984C326.157 330.288 325.971 329.478 325.971 328.554C325.971 327.63 326.157 326.826 326.529 326.142C326.901 325.446 327.423 324.912 328.095 324.54C328.779 324.168 329.571 323.982 330.471 323.982C331.371 323.982 332.157 324.168 332.829 324.54C333.513 324.912 334.035 325.446 334.395 326.142C334.767 326.826 334.953 327.63 334.953 328.554C334.953 329.478 334.767 330.288 334.395 330.984C334.035 331.68 333.513 332.214 332.829 332.586C332.157 332.958 331.371 333.144 330.471 333.144ZM330.453 331.398C331.185 331.398 331.743 331.158 332.127 330.678C332.511 330.198 332.703 329.49 332.703 328.554C332.703 327.63 332.511 326.928 332.127 326.448C331.743 325.956 331.191 325.71 330.471 325.71C329.751 325.71 329.193 325.956 328.797 326.448C328.413 326.928 328.221 327.63 328.221 328.554C328.221 329.49 328.413 330.198 328.797 330.678C329.181 331.158 329.733 331.398 330.453 331.398ZM340.825 333.144C339.925 333.144 339.133 332.958 338.449 332.586C337.777 332.214 337.255 331.68 336.883 330.984C336.511 330.288 336.325 329.478 336.325 328.554C336.325 327.63 336.511 326.826 336.883 326.142C337.255 325.446 337.777 324.912 338.449 324.54C339.133 324.168 339.925 323.982 340.825 323.982C341.725 323.982 342.511 324.168 343.183 324.54C343.867 324.912 344.389 325.446 344.749 326.142C345.121 326.826 345.307 327.63 345.307 328.554C345.307 329.478 345.121 330.288 344.749 330.984C344.389 331.68 343.867 332.214 343.183 332.586C342.511 332.958 341.725 333.144 340.825 333.144ZM340.807 331.398C341.539 331.398 342.097 331.158 342.481 330.678C342.865 330.198 343.057 329.49 343.057 328.554C343.057 327.63 342.865 326.928 342.481 326.448C342.097 325.956 341.545 325.71 340.825 325.71C340.105 325.71 339.547 325.956 339.151 326.448C338.767 326.928 338.575 327.63 338.575 328.554C338.575 329.49 338.767 330.198 339.151 330.678C339.535 331.158 340.087 331.398 340.807 331.398ZM353.194 333L349.414 328.986V333H347.164V320.31H349.414V328.05L352.96 324.216H355.696L351.736 328.428L355.984 333H353.194Z" fill="white"/>
<g filter="url(#filter1_d)">
<rect x="3" y="40" width="295" height="348" rx="10" fill="#F0F0F0"/>
</g>
<rect x="33" y="70" width="235" height="25" rx="12.5" fill="#C4C4C4"/>
<line x1="244.353" y1="83" x2="244" y2="83" stroke="#656565" stroke-width="2" stroke-linecap="round"/>
<path d="M258.707 83.7071C259.098 83.3166 259.098 82.6834 258.707 82.2929L252.343 75.9289C251.953 75.5384 251.32 75.5384 250.929 75.9289C250.538 76.3195 250.538 76.9526 250.929 77.3431L256.586 83L250.929 88.6569C250.538 89.0474 250.538 89.6805 250.929 90.0711C251.32 90.4616 251.953 90.4616 252.343 90.0711L258.707 83.7071ZM244.471 84H258V82H244.471V84Z" fill="#656565"/>
<line x1="56.647" y1="82" x2="57" y2="82" stroke="#656565" stroke-width="2" stroke-linecap="round"/>
<path d="M42.2929 81.2929C41.9023 81.6834 41.9023 82.3166 42.2929 82.7071L48.6568 89.0711C49.0474 89.4616 49.6805 89.4616 50.071 89.0711C50.4616 88.6805 50.4616 88.0474 50.071 87.6569L44.4142 82L50.071 76.3431C50.4616 75.9526 50.4616 75.3195 50.071 74.9289C49.6805 74.5384 49.0474 74.5384 48.6568 74.9289L42.2929 81.2929ZM56.5294 81H43V83H56.5294V81Z" fill="#656565"/>
<circle cx="45.5" cy="117.5" r="12.5" fill="#C4C4C4"/>
<circle cx="80.5" cy="117.5" r="12.5" fill="#C4C4C4"/>
<circle cx="115.5" cy="117.5" r="12.5" fill="#C4C4C4"/>
<circle cx="150.5" cy="117.5" r="12.5" fill="#C4C4C4"/>
<circle cx="185.5" cy="117.5" r="12.5" fill="#C4C4C4"/>
<circle cx="220.5" cy="117.5" r="12.5" fill="#C4C4C4"/>
<circle cx="255.5" cy="117.5" r="12.5" fill="#C4C4C4"/>
<circle cx="45.5" cy="152.5" r="12.5" fill="#C4C4C4"/>
<circle cx="220.5" cy="152.5" r="12.5" fill="#C4C4C4"/>
<circle cx="255.5" cy="152.5" r="12.5" fill="#C4C4C4"/>
<rect x="65" y="137" width="136" height="31" rx="15.5" fill="#80007A"/>
<circle cx="185.5" cy="152.5" r="12.5" fill="#E600DB"/>
<circle cx="80.5" cy="152.5" r="12.5" fill="#E600DB"/>
<circle cx="45.5" cy="187.5" r="12.5" fill="#C4C4C4"/>
<circle cx="80.5" cy="187.5" r="12.5" fill="#C4C4C4"/>
<circle cx="115.5" cy="187.5" r="12.5" fill="#C4C4C4"/>
<circle cx="150.5" cy="187.5" r="12.5" fill="#C4C4C4"/>
<circle cx="185.5" cy="187.5" r="12.5" fill="#C4C4C4"/>
<circle cx="220.5" cy="187.5" r="12.5" fill="#C4C4C4"/>
<circle cx="255.5" cy="187.5" r="12.5" fill="#C4C4C4"/>
<circle cx="45.5" cy="222.5" r="12.5" fill="#C4C4C4"/>
<circle cx="80.5" cy="222.5" r="12.5" fill="#C4C4C4"/>
<circle cx="115.5" cy="222.5" r="12.5" fill="#C4C4C4"/>
<circle cx="150.5" cy="222.5" r="12.5" fill="#C4C4C4"/>
<circle cx="185.5" cy="222.5" r="12.5" fill="#C4C4C4"/>
<circle cx="220.5" cy="222.5" r="12.5" fill="#C4C4C4"/>
<circle cx="255.5" cy="222.5" r="12.5" fill="#C4C4C4"/>
<rect x="33" y="255" width="235" height="35" rx="6" fill="white"/>
<rect x="33" y="310" width="235" height="35" rx="6" fill="white"/>
<path d="M65.128 18.162C63.88 18.162 62.788 17.898 61.852 17.37C60.928 16.83 60.214 16.068 59.71 15.084C59.218 14.1 58.972 12.954 58.972 11.646C58.972 10.338 59.218 9.198 59.71 8.226C60.214 7.242 60.928 6.486 61.852 5.958C62.788 5.418 63.88 5.148 65.128 5.148C65.98 5.148 66.784 5.28 67.54 5.544C68.296 5.808 68.932 6.18 69.448 6.66L68.674 8.352C68.098 7.896 67.528 7.566 66.964 7.362C66.4 7.146 65.8 7.038 65.164 7.038C63.94 7.038 62.992 7.434 62.32 8.226C61.66 9.018 61.33 10.158 61.33 11.646C61.33 13.146 61.66 14.292 62.32 15.084C62.992 15.876 63.94 16.272 65.164 16.272C65.8 16.272 66.4 16.17 66.964 15.966C67.528 15.75 68.098 15.414 68.674 14.958L69.448 16.65C68.932 17.13 68.296 17.502 67.54 17.766C66.784 18.03 65.98 18.162 65.128 18.162ZM77.1652 10.854L75.8512 10.98C74.3632 11.136 73.6192 11.892 73.6192 13.248V18H71.3692V9.198H73.5112V10.746C73.9672 9.69 74.9092 9.114 76.3372 9.018L77.0212 8.964L77.1652 10.854ZM85.8061 14.004H79.8121C79.8841 14.82 80.1301 15.426 80.5501 15.822C80.9701 16.218 81.5701 16.416 82.3501 16.416C83.3221 16.416 84.2101 16.104 85.0141 15.48L85.6621 17.028C85.2541 17.364 84.7381 17.634 84.1141 17.838C83.5021 18.042 82.8841 18.144 82.2601 18.144C80.8201 18.144 79.6801 17.736 78.8401 16.92C78.0121 16.104 77.5981 14.988 77.5981 13.572C77.5981 12.672 77.7781 11.874 78.1381 11.178C78.4981 10.482 79.0021 9.942 79.6501 9.558C80.3101 9.174 81.0541 8.982 81.8821 8.982C83.0941 8.982 84.0481 9.372 84.7441 10.152C85.4521 10.932 85.8061 12.006 85.8061 13.374V14.004ZM81.9361 10.566C81.3361 10.566 80.8501 10.758 80.4781 11.142C80.1181 11.526 79.8961 12.078 79.8121 12.798H83.8801C83.8561 12.066 83.6761 11.514 83.3401 11.142C83.0041 10.758 82.5361 10.566 81.9361 10.566ZM91.4266 8.982C92.6626 8.982 93.5806 9.282 94.1806 9.882C94.7806 10.482 95.0806 11.406 95.0806 12.654V18H92.9386V16.65C92.7346 17.118 92.4106 17.484 91.9666 17.748C91.5346 18.012 91.0306 18.144 90.4546 18.144C89.8666 18.144 89.3326 18.024 88.8526 17.784C88.3726 17.544 87.9946 17.214 87.7186 16.794C87.4426 16.374 87.3046 15.906 87.3046 15.39C87.3046 14.742 87.4666 14.232 87.7906 13.86C88.1266 13.488 88.6666 13.218 89.4106 13.05C90.1546 12.882 91.1806 12.798 92.4886 12.798H92.9386V12.384C92.9386 11.784 92.8066 11.352 92.5426 11.088C92.2906 10.824 91.8646 10.692 91.2646 10.692C90.7966 10.692 90.3046 10.776 89.7886 10.944C89.2846 11.1 88.7866 11.322 88.2946 11.61L87.6646 10.062C88.1566 9.75 88.7506 9.492 89.4466 9.288C90.1426 9.084 90.8026 8.982 91.4266 8.982ZM90.9046 16.524C91.5046 16.524 91.9906 16.326 92.3626 15.93C92.7466 15.522 92.9386 15 92.9386 14.364V13.986H92.6146C91.8106 13.986 91.1866 14.022 90.7426 14.094C90.2986 14.166 89.9806 14.292 89.7886 14.472C89.5966 14.652 89.5006 14.898 89.5006 15.21C89.5006 15.594 89.6326 15.912 89.8966 16.164C90.1606 16.404 90.4966 16.524 90.9046 16.524ZM101.867 16.452C102.131 16.452 102.407 16.434 102.695 16.398L102.587 18.072C102.227 18.108 101.897 18.126 101.597 18.126C100.361 18.126 99.4493 17.844 98.8613 17.28C98.2733 16.704 97.9793 15.852 97.9793 14.724V10.89H96.2873V9.198H97.9793V6.57H100.229V9.198H102.551V10.89H100.229V14.688C100.229 15.864 100.775 16.452 101.867 16.452ZM111.734 14.004H105.74C105.812 14.82 106.058 15.426 106.478 15.822C106.898 16.218 107.498 16.416 108.278 16.416C109.25 16.416 110.138 16.104 110.942 15.48L111.59 17.028C111.182 17.364 110.666 17.634 110.042 17.838C109.43 18.042 108.812 18.144 108.188 18.144C106.748 18.144 105.608 17.736 104.768 16.92C103.94 16.104 103.526 14.988 103.526 13.572C103.526 12.672 103.706 11.874 104.066 11.178C104.426 10.482 104.93 9.942 105.578 9.558C106.238 9.174 106.982 8.982 107.81 8.982C109.022 8.982 109.976 9.372 110.672 10.152C111.38 10.932 111.734 12.006 111.734 13.374V14.004ZM107.864 10.566C107.264 10.566 106.778 10.758 106.406 11.142C106.046 11.526 105.824 12.078 105.74 12.798H109.808C109.784 12.066 109.604 11.514 109.268 11.142C108.932 10.758 108.464 10.566 107.864 10.566ZM122.241 8.982C123.477 8.982 124.395 9.282 124.995 9.882C125.595 10.482 125.895 11.406 125.895 12.654V18H123.753V16.65C123.549 17.118 123.225 17.484 122.781 17.748C122.349 18.012 121.845 18.144 121.269 18.144C120.681 18.144 120.147 18.024 119.667 17.784C119.187 17.544 118.809 17.214 118.533 16.794C118.257 16.374 118.119 15.906 118.119 15.39C118.119 14.742 118.281 14.232 118.605 13.86C118.941 13.488 119.481 13.218 120.225 13.05C120.969 12.882 121.995 12.798 123.303 12.798H123.753V12.384C123.753 11.784 123.621 11.352 123.357 11.088C123.105 10.824 122.679 10.692 122.079 10.692C121.611 10.692 121.119 10.776 120.603 10.944C120.099 11.1 119.601 11.322 119.109 11.61L118.479 10.062C118.971 9.75 119.565 9.492 120.261 9.288C120.957 9.084 121.617 8.982 122.241 8.982ZM121.719 16.524C122.319 16.524 122.805 16.326 123.177 15.93C123.561 15.522 123.753 15 123.753 14.364V13.986H123.429C122.625 13.986 122.001 14.022 121.557 14.094C121.113 14.166 120.795 14.292 120.603 14.472C120.411 14.652 120.315 14.898 120.315 15.21C120.315 15.594 120.447 15.912 120.711 16.164C120.975 16.404 121.311 16.524 121.719 16.524ZM138.126 8.982C138.894 8.982 139.572 9.168 140.16 9.54C140.748 9.912 141.204 10.44 141.528 11.124C141.864 11.808 142.032 12.606 142.032 13.518C142.032 14.43 141.864 15.24 141.528 15.948C141.204 16.644 140.742 17.184 140.142 17.568C139.554 17.952 138.882 18.144 138.126 18.144C137.49 18.144 136.92 18.006 136.416 17.73C135.924 17.454 135.546 17.07 135.282 16.578V18H133.068V5.31H135.318V10.476C135.582 9.996 135.96 9.63 136.452 9.378C136.944 9.114 137.502 8.982 138.126 8.982ZM137.532 16.398C138.24 16.398 138.792 16.146 139.188 15.642C139.584 15.138 139.782 14.43 139.782 13.518C139.782 12.618 139.584 11.928 139.188 11.448C138.804 10.968 138.252 10.728 137.532 10.728C136.812 10.728 136.254 10.974 135.858 11.466C135.474 11.946 135.282 12.642 135.282 13.554C135.282 14.466 135.474 15.168 135.858 15.66C136.254 16.152 136.812 16.398 137.532 16.398ZM147.893 18.144C146.993 18.144 146.201 17.958 145.517 17.586C144.845 17.214 144.323 16.68 143.951 15.984C143.579 15.288 143.393 14.478 143.393 13.554C143.393 12.63 143.579 11.826 143.951 11.142C144.323 10.446 144.845 9.912 145.517 9.54C146.201 9.168 146.993 8.982 147.893 8.982C148.793 8.982 149.579 9.168 150.251 9.54C150.935 9.912 151.457 10.446 151.817 11.142C152.189 11.826 152.375 12.63 152.375 13.554C152.375 14.478 152.189 15.288 151.817 15.984C151.457 16.68 150.935 17.214 150.251 17.586C149.579 17.958 148.793 18.144 147.893 18.144ZM147.875 16.398C148.607 16.398 149.165 16.158 149.549 15.678C149.933 15.198 150.125 14.49 150.125 13.554C150.125 12.63 149.933 11.928 149.549 11.448C149.165 10.956 148.613 10.71 147.893 10.71C147.173 10.71 146.615 10.956 146.219 11.448C145.835 11.928 145.643 12.63 145.643 13.554C145.643 14.49 145.835 15.198 146.219 15.678C146.603 16.158 147.155 16.398 147.875 16.398ZM158.247 18.144C157.347 18.144 156.555 17.958 155.871 17.586C155.199 17.214 154.677 16.68 154.305 15.984C153.933 15.288 153.747 14.478 153.747 13.554C153.747 12.63 153.933 11.826 154.305 11.142C154.677 10.446 155.199 9.912 155.871 9.54C156.555 9.168 157.347 8.982 158.247 8.982C159.147 8.982 159.933 9.168 160.605 9.54C161.289 9.912 161.811 10.446 162.171 11.142C162.543 11.826 162.729 12.63 162.729 13.554C162.729 14.478 162.543 15.288 162.171 15.984C161.811 16.68 161.289 17.214 160.605 17.586C159.933 17.958 159.147 18.144 158.247 18.144ZM158.229 16.398C158.961 16.398 159.519 16.158 159.903 15.678C160.287 15.198 160.479 14.49 160.479 13.554C160.479 12.63 160.287 11.928 159.903 11.448C159.519 10.956 158.967 10.71 158.247 10.71C157.527 10.71 156.969 10.956 156.573 11.448C156.189 11.928 155.997 12.63 155.997 13.554C155.997 14.49 156.189 15.198 156.573 15.678C156.957 16.158 157.509 16.398 158.229 16.398ZM170.616 18L166.836 13.986V18H164.586V5.31H166.836V13.05L170.382 9.216H173.118L169.158 13.428L173.406 18H170.616ZM174.236 9.198H176.486V18H174.236V9.198ZM176.594 5.112V7.326H174.11V5.112H176.594ZM183.919 8.982C184.975 8.982 185.761 9.282 186.277 9.882C186.793 10.482 187.051 11.388 187.051 12.6V18H184.801V12.726C184.801 12.042 184.669 11.544 184.405 11.232C184.153 10.92 183.751 10.764 183.199 10.764C182.551 10.764 182.029 10.968 181.633 11.376C181.249 11.784 181.057 12.33 181.057 13.014V18H178.807V9.198H181.003V10.512C181.303 10.02 181.705 9.642 182.209 9.378C182.713 9.114 183.283 8.982 183.919 8.982ZM197.904 9.198V17.19C197.904 18.57 197.52 19.614 196.752 20.322C195.996 21.03 194.874 21.384 193.386 21.384C192.618 21.384 191.88 21.282 191.172 21.078C190.464 20.886 189.846 20.61 189.318 20.25L189.948 18.666C191.04 19.326 192.168 19.656 193.332 19.656C194.892 19.656 195.672 18.888 195.672 17.352V16.2C195.408 16.692 195.024 17.076 194.52 17.352C194.016 17.616 193.44 17.748 192.792 17.748C192.024 17.748 191.34 17.568 190.74 17.208C190.152 16.836 189.69 16.32 189.354 15.66C189.018 15 188.85 14.238 188.85 13.374C188.85 12.51 189.012 11.748 189.336 11.088C189.672 10.416 190.14 9.9 190.74 9.54C191.34 9.168 192.024 8.982 192.792 8.982C193.44 8.982 194.016 9.12 194.52 9.396C195.024 9.66 195.408 10.038 195.672 10.53V9.198H197.904ZM193.386 16.002C194.106 16.002 194.664 15.768 195.06 15.3C195.468 14.832 195.672 14.19 195.672 13.374C195.672 12.546 195.468 11.898 195.06 11.43C194.664 10.962 194.106 10.728 193.386 10.728C192.678 10.728 192.12 10.962 191.712 11.43C191.304 11.898 191.1 12.546 191.1 13.374C191.1 14.178 191.304 14.82 191.712 15.3C192.12 15.768 192.678 16.002 193.386 16.002ZM207.983 9.198H210.305V10.89H207.983V18H205.733V10.89H204.041V9.198H205.733C205.733 7.938 206.057 6.99 206.705 6.354C207.365 5.718 208.385 5.364 209.765 5.292L210.647 5.238L210.791 6.912L209.945 6.948C209.237 6.984 208.733 7.146 208.433 7.434C208.133 7.71 207.983 8.16 207.983 8.784V9.198ZM215.498 18.144C214.598 18.144 213.806 17.958 213.122 17.586C212.45 17.214 211.928 16.68 211.556 15.984C211.184 15.288 210.998 14.478 210.998 13.554C210.998 12.63 211.184 11.826 211.556 11.142C211.928 10.446 212.45 9.912 213.122 9.54C213.806 9.168 214.598 8.982 215.498 8.982C216.398 8.982 217.184 9.168 217.856 9.54C218.54 9.912 219.062 10.446 219.422 11.142C219.794 11.826 219.98 12.63 219.98 13.554C219.98 14.478 219.794 15.288 219.422 15.984C219.062 16.68 218.54 17.214 217.856 17.586C217.184 17.958 216.398 18.144 215.498 18.144ZM215.48 16.398C216.212 16.398 216.77 16.158 217.154 15.678C217.538 15.198 217.73 14.49 217.73 13.554C217.73 12.63 217.538 11.928 217.154 11.448C216.77 10.956 216.218 10.71 215.498 10.71C214.778 10.71 214.22 10.956 213.824 11.448C213.44 11.928 213.248 12.63 213.248 13.554C213.248 14.49 213.44 15.198 213.824 15.678C214.208 16.158 214.76 16.398 215.48 16.398ZM227.634 10.854L226.32 10.98C224.832 11.136 224.088 11.892 224.088 13.248V18H221.838V9.198H223.98V10.746C224.436 9.69 225.378 9.114 226.806 9.018L227.49 8.964L227.634 10.854ZM239.187 8.982C240.183 8.982 240.927 9.282 241.419 9.882C241.911 10.47 242.157 11.376 242.157 12.6V18H239.907V12.69C239.907 12.018 239.793 11.532 239.565 11.232C239.337 10.92 238.971 10.764 238.467 10.764C237.867 10.764 237.399 10.968 237.063 11.376C236.727 11.784 236.559 12.354 236.559 13.086V18H234.309V12.69C234.309 12.018 234.195 11.532 233.967 11.232C233.751 10.92 233.385 10.764 232.869 10.764C232.281 10.764 231.819 10.968 231.483 11.376C231.147 11.784 230.979 12.354 230.979 13.086V18H228.729V9.198H230.925V10.44C231.189 9.96 231.555 9.6 232.023 9.36C232.491 9.108 233.025 8.982 233.625 8.982C234.957 8.982 235.839 9.534 236.271 10.638C236.547 10.122 236.943 9.72 237.459 9.432C237.975 9.132 238.551 8.982 239.187 8.982Z" fill="#80007A"/>
<g filter="url(#filter2_d)">
<rect x="448" y="206" width="250" height="125" rx="10" fill="#F0F0F0"/>
<rect x="463" y="221" width="53" height="20" fill="#C4C4C4"/>
<rect x="521" y="221" width="14" height="20" fill="#C4C4C4"/>
<rect x="540" y="221" width="89" height="20" fill="#C4C4C4"/>
<rect x="634" y="221" width="49" height="20" fill="#C4C4C4"/>
<rect x="463" y="251" width="104" height="20" fill="#C4C4C4"/>
<rect x="564" y="291" width="57" height="25" rx="12.5" fill="#B49999"/>
<rect x="626" y="291" width="57" height="25" rx="12.5" fill="#99B49B"/>
</g>
<g filter="url(#filter3_d)">
<rect x="398" y="131" width="250" height="125" rx="10" fill="#F0F0F0"/>
<rect x="413" y="146" width="53" height="20" fill="#C4C4C4"/>
<rect x="471" y="146" width="14" height="20" fill="#C4C4C4"/>
<rect x="490" y="146" width="89" height="20" fill="#C4C4C4"/>
<rect x="584" y="146" width="49" height="20" fill="#C4C4C4"/>
<rect x="413" y="176" width="104" height="20" fill="#C4C4C4"/>
<rect x="514" y="216" width="57" height="25" rx="12.5" fill="#B49999"/>
<rect x="576" y="216" width="57" height="25" rx="12.5" fill="#99B49B"/>
</g>
<g filter="url(#filter4_d)">
<rect x="348" y="56" width="250" height="125" rx="10" fill="#F0F0F0"/>
<rect x="363" y="71" width="53" height="20" fill="#C4C4C4"/>
<rect x="421" y="71" width="14" height="20" fill="#C4C4C4"/>
<rect x="440" y="71" width="89" height="20" fill="#C4C4C4"/>
<rect x="534" y="71" width="49" height="20" fill="#C4C4C4"/>
<rect x="363" y="101" width="104" height="20" fill="#C4C4C4"/>
<rect x="464" y="141" width="57" height="25" rx="12.5" fill="#B49999"/>
<rect x="526" y="141" width="57" height="25" rx="12.5" fill="#99B49B"/>
</g>
<path d="M497.752 351.31V364H495.7V355.612L492.352 361.948H490.804L487.438 355.702L487.456 364H485.404V351.31H487.24L491.596 359.608L495.934 351.31H497.752ZM504.085 354.982C505.321 354.982 506.239 355.282 506.839 355.882C507.439 356.482 507.739 357.406 507.739 358.654V364H505.597V362.65C505.393 363.118 505.069 363.484 504.625 363.748C504.193 364.012 503.689 364.144 503.113 364.144C502.525 364.144 501.991 364.024 501.511 363.784C501.031 363.544 500.653 363.214 500.377 362.794C500.101 362.374 499.963 361.906 499.963 361.39C499.963 360.742 500.125 360.232 500.449 359.86C500.785 359.488 501.325 359.218 502.069 359.05C502.813 358.882 503.839 358.798 505.147 358.798H505.597V358.384C505.597 357.784 505.465 357.352 505.201 357.088C504.949 356.824 504.523 356.692 503.923 356.692C503.455 356.692 502.963 356.776 502.447 356.944C501.943 357.1 501.445 357.322 500.953 357.61L500.323 356.062C500.815 355.75 501.409 355.492 502.105 355.288C502.801 355.084 503.461 354.982 504.085 354.982ZM503.563 362.524C504.163 362.524 504.649 362.326 505.021 361.93C505.405 361.522 505.597 361 505.597 360.364V359.986H505.273C504.469 359.986 503.845 360.022 503.401 360.094C502.957 360.166 502.639 360.292 502.447 360.472C502.255 360.652 502.159 360.898 502.159 361.21C502.159 361.594 502.291 361.912 502.555 362.164C502.819 362.404 503.155 362.524 503.563 362.524ZM515.137 354.982C516.193 354.982 516.979 355.282 517.495 355.882C518.011 356.482 518.269 357.388 518.269 358.6V364H516.019V358.726C516.019 358.042 515.887 357.544 515.623 357.232C515.371 356.92 514.969 356.764 514.417 356.764C513.769 356.764 513.247 356.968 512.851 357.376C512.467 357.784 512.275 358.33 512.275 359.014V364H510.025V355.198H512.221V356.512C512.521 356.02 512.923 355.642 513.427 355.378C513.931 355.114 514.501 354.982 515.137 354.982ZM524.335 354.982C525.571 354.982 526.489 355.282 527.089 355.882C527.689 356.482 527.989 357.406 527.989 358.654V364H525.847V362.65C525.643 363.118 525.319 363.484 524.875 363.748C524.443 364.012 523.939 364.144 523.363 364.144C522.775 364.144 522.241 364.024 521.761 363.784C521.281 363.544 520.903 363.214 520.627 362.794C520.351 362.374 520.213 361.906 520.213 361.39C520.213 360.742 520.375 360.232 520.699 359.86C521.035 359.488 521.575 359.218 522.319 359.05C523.063 358.882 524.089 358.798 525.397 358.798H525.847V358.384C525.847 357.784 525.715 357.352 525.451 357.088C525.199 356.824 524.773 356.692 524.173 356.692C523.705 356.692 523.213 356.776 522.697 356.944C522.193 357.1 521.695 357.322 521.203 357.61L520.573 356.062C521.065 355.75 521.659 355.492 522.355 355.288C523.051 355.084 523.711 354.982 524.335 354.982ZM523.813 362.524C524.413 362.524 524.899 362.326 525.271 361.93C525.655 361.522 525.847 361 525.847 360.364V359.986H525.523C524.719 359.986 524.095 360.022 523.651 360.094C523.207 360.166 522.889 360.292 522.697 360.472C522.505 360.652 522.409 360.898 522.409 361.21C522.409 361.594 522.541 361.912 522.805 362.164C523.069 362.404 523.405 362.524 523.813 362.524ZM538.843 355.198V363.19C538.843 364.57 538.459 365.614 537.691 366.322C536.935 367.03 535.813 367.384 534.325 367.384C533.557 367.384 532.819 367.282 532.111 367.078C531.403 366.886 530.785 366.61 530.257 366.25L530.887 364.666C531.979 365.326 533.107 365.656 534.271 365.656C535.831 365.656 536.611 364.888 536.611 363.352V362.2C536.347 362.692 535.963 363.076 535.459 363.352C534.955 363.616 534.379 363.748 533.731 363.748C532.963 363.748 532.279 363.568 531.679 363.208C531.091 362.836 530.629 362.32 530.293 361.66C529.957 361 529.789 360.238 529.789 359.374C529.789 358.51 529.951 357.748 530.275 357.088C530.611 356.416 531.079 355.9 531.679 355.54C532.279 355.168 532.963 354.982 533.731 354.982C534.379 354.982 534.955 355.12 535.459 355.396C535.963 355.66 536.347 356.038 536.611 356.53V355.198H538.843ZM534.325 362.002C535.045 362.002 535.603 361.768 535.999 361.3C536.407 360.832 536.611 360.19 536.611 359.374C536.611 358.546 536.407 357.898 535.999 357.43C535.603 356.962 535.045 356.728 534.325 356.728C533.617 356.728 533.059 356.962 532.651 357.43C532.243 357.898 532.039 358.546 532.039 359.374C532.039 360.178 532.243 360.82 532.651 361.3C533.059 361.768 533.617 362.002 534.325 362.002ZM548.896 360.004H542.902C542.974 360.82 543.22 361.426 543.64 361.822C544.06 362.218 544.66 362.416 545.44 362.416C546.412 362.416 547.3 362.104 548.104 361.48L548.752 363.028C548.344 363.364 547.828 363.634 547.204 363.838C546.592 364.042 545.974 364.144 545.35 364.144C543.91 364.144 542.77 363.736 541.93 362.92C541.102 362.104 540.688 360.988 540.688 359.572C540.688 358.672 540.868 357.874 541.228 357.178C541.588 356.482 542.092 355.942 542.74 355.558C543.4 355.174 544.144 354.982 544.972 354.982C546.184 354.982 547.138 355.372 547.834 356.152C548.542 356.932 548.896 358.006 548.896 359.374V360.004ZM545.026 356.566C544.426 356.566 543.94 356.758 543.568 357.142C543.208 357.526 542.986 358.078 542.902 358.798H546.97C546.946 358.066 546.766 357.514 546.43 357.142C546.094 356.758 545.626 356.566 545.026 356.566ZM564.011 355.216L558.719 367.24H556.451L558.053 363.658L554.381 355.216H556.757L559.241 361.426L561.797 355.216H564.011ZM568.971 364.144C568.071 364.144 567.279 363.958 566.595 363.586C565.923 363.214 565.401 362.68 565.029 361.984C564.657 361.288 564.471 360.478 564.471 359.554C564.471 358.63 564.657 357.826 565.029 357.142C565.401 356.446 565.923 355.912 566.595 355.54C567.279 355.168 568.071 354.982 568.971 354.982C569.871 354.982 570.657 355.168 571.329 355.54C572.013 355.912 572.535 356.446 572.895 357.142C573.267 357.826 573.453 358.63 573.453 359.554C573.453 360.478 573.267 361.288 572.895 361.984C572.535 362.68 572.013 363.214 571.329 363.586C570.657 363.958 569.871 364.144 568.971 364.144ZM568.953 362.398C569.685 362.398 570.243 362.158 570.627 361.678C571.011 361.198 571.203 360.49 571.203 359.554C571.203 358.63 571.011 357.928 570.627 357.448C570.243 356.956 569.691 356.71 568.971 356.71C568.251 356.71 567.693 356.956 567.297 357.448C566.913 357.928 566.721 358.63 566.721 359.554C566.721 360.49 566.913 361.198 567.297 361.678C567.681 362.158 568.233 362.398 568.953 362.398ZM583.393 355.198V364H581.197V362.65C580.921 363.13 580.549 363.502 580.081 363.766C579.613 364.018 579.085 364.144 578.497 364.144C576.337 364.144 575.257 362.932 575.257 360.508V355.198H577.507V360.526C577.507 361.15 577.633 361.612 577.885 361.912C578.137 362.212 578.533 362.362 579.073 362.362C579.697 362.362 580.195 362.158 580.567 361.75C580.951 361.33 581.143 360.778 581.143 360.094V355.198H583.393ZM591.53 356.854L590.216 356.98C588.728 357.136 587.984 357.892 587.984 359.248V364H585.734V355.198H587.876V356.746C588.332 355.69 589.274 355.114 590.702 355.018L591.386 354.964L591.53 356.854ZM602.57 354.982C603.338 354.982 604.016 355.168 604.604 355.54C605.192 355.912 605.648 356.44 605.972 357.124C606.308 357.808 606.476 358.606 606.476 359.518C606.476 360.43 606.308 361.24 605.972 361.948C605.648 362.644 605.186 363.184 604.586 363.568C603.998 363.952 603.326 364.144 602.57 364.144C601.934 364.144 601.364 364.006 600.86 363.73C600.368 363.454 599.99 363.07 599.726 362.578V364H597.512V351.31H599.762V356.476C600.026 355.996 600.404 355.63 600.896 355.378C601.388 355.114 601.946 354.982 602.57 354.982ZM601.976 362.398C602.684 362.398 603.236 362.146 603.632 361.642C604.028 361.138 604.226 360.43 604.226 359.518C604.226 358.618 604.028 357.928 603.632 357.448C603.248 356.968 602.696 356.728 601.976 356.728C601.256 356.728 600.698 356.974 600.302 357.466C599.918 357.946 599.726 358.642 599.726 359.554C599.726 360.466 599.918 361.168 600.302 361.66C600.698 362.152 601.256 362.398 601.976 362.398ZM612.336 364.144C611.436 364.144 610.644 363.958 609.96 363.586C609.288 363.214 608.766 362.68 608.394 361.984C608.022 361.288 607.836 360.478 607.836 359.554C607.836 358.63 608.022 357.826 608.394 357.142C608.766 356.446 609.288 355.912 609.96 355.54C610.644 355.168 611.436 354.982 612.336 354.982C613.236 354.982 614.022 355.168 614.694 355.54C615.378 355.912 615.9 356.446 616.26 357.142C616.632 357.826 616.818 358.63 616.818 359.554C616.818 360.478 616.632 361.288 616.26 361.984C615.9 362.68 615.378 363.214 614.694 363.586C614.022 363.958 613.236 364.144 612.336 364.144ZM612.318 362.398C613.05 362.398 613.608 362.158 613.992 361.678C614.376 361.198 614.568 360.49 614.568 359.554C614.568 358.63 614.376 357.928 613.992 357.448C613.608 356.956 613.056 356.71 612.336 356.71C611.616 356.71 611.058 356.956 610.662 357.448C610.278 357.928 610.086 358.63 610.086 359.554C610.086 360.49 610.278 361.198 610.662 361.678C611.046 362.158 611.598 362.398 612.318 362.398ZM622.69 364.144C621.79 364.144 620.998 363.958 620.314 363.586C619.642 363.214 619.12 362.68 618.748 361.984C618.376 361.288 618.19 360.478 618.19 359.554C618.19 358.63 618.376 357.826 618.748 357.142C619.12 356.446 619.642 355.912 620.314 355.54C620.998 355.168 621.79 354.982 622.69 354.982C623.59 354.982 624.376 355.168 625.048 355.54C625.732 355.912 626.254 356.446 626.614 357.142C626.986 357.826 627.172 358.63 627.172 359.554C627.172 360.478 626.986 361.288 626.614 361.984C626.254 362.68 625.732 363.214 625.048 363.586C624.376 363.958 623.59 364.144 622.69 364.144ZM622.672 362.398C623.404 362.398 623.962 362.158 624.346 361.678C624.73 361.198 624.922 360.49 624.922 359.554C624.922 358.63 624.73 357.928 624.346 357.448C623.962 356.956 623.41 356.71 622.69 356.71C621.97 356.71 621.412 356.956 621.016 357.448C620.632 357.928 620.44 358.63 620.44 359.554C620.44 360.49 620.632 361.198 621.016 361.678C621.4 362.158 621.952 362.398 622.672 362.398ZM635.059 364L631.279 359.986V364H629.029V351.31H631.279V359.05L634.825 355.216H637.561L633.601 359.428L637.849 364H635.059ZM638.68 355.198H640.93V364H638.68V355.198ZM641.038 351.112V353.326H638.554V351.112H641.038ZM648.362 354.982C649.418 354.982 650.204 355.282 650.72 355.882C651.236 356.482 651.494 357.388 651.494 358.6V364H649.244V358.726C649.244 358.042 649.112 357.544 648.848 357.232C648.596 356.92 648.194 356.764 647.642 356.764C646.994 356.764 646.472 356.968 646.076 357.376C645.692 357.784 645.5 358.33 645.5 359.014V364H643.25V355.198H645.446V356.512C645.746 356.02 646.148 355.642 646.652 355.378C647.156 355.114 647.726 354.982 648.362 354.982ZM662.347 355.198V363.19C662.347 364.57 661.963 365.614 661.195 366.322C660.439 367.03 659.317 367.384 657.829 367.384C657.061 367.384 656.323 367.282 655.615 367.078C654.907 366.886 654.289 366.61 653.761 366.25L654.391 364.666C655.483 365.326 656.611 365.656 657.775 365.656C659.335 365.656 660.115 364.888 660.115 363.352V362.2C659.851 362.692 659.467 363.076 658.963 363.352C658.459 363.616 657.883 363.748 657.235 363.748C656.467 363.748 655.783 363.568 655.183 363.208C654.595 362.836 654.133 362.32 653.797 361.66C653.461 361 653.293 360.238 653.293 359.374C653.293 358.51 653.455 357.748 653.779 357.088C654.115 356.416 654.583 355.9 655.183 355.54C655.783 355.168 656.467 354.982 657.235 354.982C657.883 354.982 658.459 355.12 658.963 355.396C659.467 355.66 659.851 356.038 660.115 356.53V355.198H662.347ZM657.829 362.002C658.549 362.002 659.107 361.768 659.503 361.3C659.911 360.832 660.115 360.19 660.115 359.374C660.115 358.546 659.911 357.898 659.503 357.43C659.107 356.962 658.549 356.728 657.829 356.728C657.121 356.728 656.563 356.962 656.155 357.43C655.747 357.898 655.543 358.546 655.543 359.374C655.543 360.178 655.747 360.82 656.155 361.3C656.563 361.768 657.121 362.002 657.829 362.002ZM667.918 364.144C667.138 364.144 666.418 364.048 665.758 363.856C665.11 363.664 664.558 363.388 664.102 363.028L664.732 361.462C665.668 362.146 666.742 362.488 667.954 362.488C668.47 362.488 668.86 362.404 669.124 362.236C669.4 362.068 669.538 361.828 669.538 361.516C669.538 361.252 669.442 361.048 669.25 360.904C669.07 360.76 668.74 360.628 668.26 360.508L666.82 360.184C666.004 360.004 665.398 359.71 665.002 359.302C664.606 358.894 664.408 358.366 664.408 357.718C664.408 357.178 664.558 356.704 664.858 356.296C665.17 355.876 665.596 355.552 666.136 355.324C666.688 355.096 667.324 354.982 668.044 354.982C668.668 354.982 669.268 355.078 669.844 355.27C670.432 355.462 670.948 355.732 671.392 356.08L670.762 357.61C669.85 356.95 668.938 356.62 668.026 356.62C667.534 356.62 667.15 356.71 666.874 356.89C666.598 357.07 666.46 357.322 666.46 357.646C666.46 357.886 666.544 358.084 666.712 358.24C666.892 358.396 667.174 358.516 667.558 358.6L669.052 358.942C669.928 359.134 670.57 359.44 670.978 359.86C671.386 360.268 671.59 360.808 671.59 361.48C671.59 362.296 671.26 362.944 670.6 363.424C669.94 363.904 669.046 364.144 667.918 364.144Z" fill="#80007A"/>
<defs>
<filter id="filter0_d" x="242" y="301" width="170" height="56" filterUnits="userSpaceOnUse" color-interpolation-filters="sRGB">
<feFlood flood-opacity="0" result="BackgroundImageFix"/>
<feColorMatrix in="SourceAlpha" type="matrix" values="0 0 0 0 0 0 0 0 0 0 0 0 0 0 0 0 0 0 127 0"/>
<feOffset dx="2" dy="2"/>
<feGaussianBlur stdDeviation="1.5"/>
<feColorMatrix type="matrix" values="0 0 0 0 0 0 0 0 0 0 0 0 0 0 0 0 0 0 0.25 0"/>
<feBlend mode="normal" in2="BackgroundImageFix" result="effect1_dropShadow"/>
<feBlend mode="normal" in="SourceGraphic" in2="effect1_dropShadow" result="shape"/>
</filter>
<filter id="filter1_d" x="0" y="37" width="305" height="358" filterUnits="userSpaceOnUse" color-interpolation-filters="sRGB">
<feFlood flood-opacity="0" result="BackgroundImageFix"/>
<feColorMatrix in="SourceAlpha" type="matrix" values="0 0 0 0 0 0 0 0 0 0 0 0 0 0 0 0 0 0 127 0"/>
<feOffset dx="2" dy="2"/>
<feGaussianBlur stdDeviation="2.5"/>
<feColorMatrix type="matrix" values="0 0 0 0 0 0 0 0 0 0 0 0 0 0 0 0 0 0 0.25 0"/>
<feBlend mode="normal" in2="BackgroundImageFix" result="effect1_dropShadow"/>
<feBlend mode="normal" in="SourceGraphic" in2="effect1_dropShadow" result="shape"/>
</filter>
<filter id="filter2_d" x="446" y="204" width="256" height="131" filterUnits="userSpaceOnUse" color-interpolation-filters="sRGB">
<feFlood flood-opacity="0" result="BackgroundImageFix"/>
<feColorMatrix in="SourceAlpha" type="matrix" values="0 0 0 0 0 0 0 0 0 0 0 0 0 0 0 0 0 0 127 0"/>
<feOffset dx="1" dy="1"/>
<feGaussianBlur stdDeviation="1.5"/>
<feColorMatrix type="matrix" values="0 0 0 0 0 0 0 0 0 0 0 0 0 0 0 0 0 0 0.25 0"/>
<feBlend mode="normal" in2="BackgroundImageFix" result="effect1_dropShadow"/>
<feBlend mode="normal" in="SourceGraphic" in2="effect1_dropShadow" result="shape"/>
</filter>
<filter id="filter3_d" x="396" y="129" width="256" height="131" filterUnits="userSpaceOnUse" color-interpolation-filters="sRGB">
<feFlood flood-opacity="0" result="BackgroundImageFix"/>
<feColorMatrix in="SourceAlpha" type="matrix" values="0 0 0 0 0 0 0 0 0 0 0 0 0 0 0 0 0 0 127 0"/>
<feOffset dx="1" dy="1"/>
<feGaussianBlur stdDeviation="1.5"/>
<feColorMatrix type="matrix" values="0 0 0 0 0 0 0 0 0 0 0 0 0 0 0 0 0 0 0.25 0"/>
<feBlend mode="normal" in2="BackgroundImageFix" result="effect1_dropShadow"/>
<feBlend mode="normal" in="SourceGraphic" in2="effect1_dropShadow" result="shape"/>
</filter>
<filter id="filter4_d" x="346" y="54" width="256" height="131" filterUnits="userSpaceOnUse" color-interpolation-filters="sRGB">
<feFlood flood-opacity="0" result="BackgroundImageFix"/>
<feColorMatrix in="SourceAlpha" type="matrix" values="0 0 0 0 0 0 0 0 0 0 0 0 0 0 0 0 0 0 127 0"/>
<feOffset dx="1" dy="1"/>
<feGaussianBlur stdDeviation="1.5"/>
<feColorMatrix type="matrix" values="0 0 0 0 0 0 0 0 0 0 0 0 0 0 0 0 0 0 0.25 0"/>
<feBlend mode="normal" in2="BackgroundImageFix" result="effect1_dropShadow"/>
<feBlend mode="normal" in="SourceGraphic" in2="effect1_dropShadow" result="shape"/>
</filter>
</defs>
</svg>
