<svg width="231" height="45" viewBox="0 0 231 45" fill="none" xmlns="http://www.w3.org/2000/svg">
<path d="M65.456 35H54.672V13.656H65.168C67.0667 13.656 68.5493 14.1787 69.616 15.224C70.704 16.248 71.248 17.5387 71.248 19.096C71.248 20.376 70.8853 21.464 70.16 22.36C69.456 23.2347 68.5813 23.7787 67.536 23.992C68.688 24.1627 69.6587 24.76 70.448 25.784C71.2587 26.7867 71.664 27.9387 71.664 29.24C71.664 30.9467 71.1093 32.3333 70 33.4C68.912 34.4667 67.3973 35 65.456 35ZM64.4 22.488C65.3387 22.488 66.0747 22.232 66.608 21.72C67.1413 21.208 67.408 20.5467 67.408 19.736C67.408 18.904 67.1413 18.232 66.608 17.72C66.0747 17.208 65.3387 16.952 64.4 16.952H58.416V22.488H64.4ZM64.56 31.704C65.584 31.704 66.384 31.448 66.96 30.936C67.536 30.4027 67.824 29.6667 67.824 28.728C67.824 27.896 67.536 27.2027 66.96 26.648C66.384 26.072 65.584 25.784 64.56 25.784H58.416V31.704H64.56ZM82.302 35.384C79.9127 35.384 77.9927 34.6053 76.542 33.048C75.0913 31.4693 74.366 29.5387 74.366 27.256C74.366 24.9733 75.0913 23.0533 76.542 21.496C77.9927 19.9387 79.9127 19.16 82.302 19.16C84.7127 19.16 86.6433 19.9387 88.094 21.496C89.5447 23.0533 90.27 24.9733 90.27 27.256C90.27 29.56 89.5447 31.4907 88.094 33.048C86.6433 34.6053 84.7127 35.384 82.302 35.384ZM82.302 32.408C83.6887 32.408 84.7767 31.9173 85.566 30.936C86.3767 29.9333 86.782 28.7067 86.782 27.256C86.782 25.8267 86.3767 24.6213 85.566 23.64C84.7767 22.6373 83.6887 22.136 82.302 22.136C80.9367 22.136 79.8487 22.6373 79.038 23.64C78.2487 24.6213 77.854 25.8267 77.854 27.256C77.854 28.7067 78.2487 29.9333 79.038 30.936C79.8487 31.9173 80.9367 32.408 82.302 32.408ZM100.646 35.384C98.2564 35.384 96.3364 34.6053 94.8857 33.048C93.4351 31.4693 92.7097 29.5387 92.7097 27.256C92.7097 24.9733 93.4351 23.0533 94.8857 21.496C96.3364 19.9387 98.2564 19.16 100.646 19.16C103.056 19.16 104.987 19.9387 106.438 21.496C107.888 23.0533 108.614 24.9733 108.614 27.256C108.614 29.56 107.888 31.4907 106.438 33.048C104.987 34.6053 103.056 35.384 100.646 35.384ZM100.646 32.408C102.032 32.408 103.12 31.9173 103.91 30.936C104.72 29.9333 105.126 28.7067 105.126 27.256C105.126 25.8267 104.72 24.6213 103.91 23.64C103.12 22.6373 102.032 22.136 100.646 22.136C99.2804 22.136 98.1924 22.6373 97.3817 23.64C96.5924 24.6213 96.1977 25.8267 96.1977 27.256C96.1977 28.7067 96.5924 29.9333 97.3817 30.936C98.1924 31.9173 99.2804 32.408 100.646 32.408ZM126.477 35H122.253L117.517 28.632L115.373 30.84V35H112.013V13.656H115.373V27L122.189 19.544H126.349L119.917 26.552L126.477 35ZM141.657 35H138.297V33.336C137.103 34.7013 135.439 35.384 133.305 35.384C131.897 35.384 130.649 34.936 129.561 34.04C128.473 33.1227 127.929 31.864 127.929 30.264C127.929 28.6213 128.463 27.3733 129.529 26.52C130.617 25.6667 131.876 25.24 133.305 25.24C135.503 25.24 137.167 25.9013 138.297 27.224V24.92C138.297 24.024 137.967 23.32 137.305 22.808C136.644 22.296 135.769 22.04 134.681 22.04C132.953 22.04 131.428 22.6907 130.105 23.992L128.729 21.656C130.479 19.992 132.644 19.16 135.225 19.16C137.124 19.16 138.671 19.608 139.865 20.504C141.06 21.4 141.657 22.8187 141.657 24.76V35ZM134.617 33.08C136.303 33.08 137.529 32.5467 138.297 31.48V29.144C137.529 28.0773 136.303 27.544 134.617 27.544C133.657 27.544 132.868 27.8 132.249 28.312C131.631 28.824 131.321 29.496 131.321 30.328C131.321 31.16 131.631 31.832 132.249 32.344C132.868 32.8347 133.657 33.08 134.617 33.08ZM156.061 35.384C152.883 35.384 150.269 34.3493 148.221 32.28C146.173 30.1893 145.149 27.544 145.149 24.344C145.149 21.144 146.173 18.5093 148.221 16.44C150.269 14.3493 152.883 13.304 156.061 13.304C159.24 13.304 161.853 14.3493 163.901 16.44C165.949 18.5093 166.973 21.144 166.973 24.344C166.973 27.3947 166.024 29.9547 164.125 32.024L165.885 34.008L163.293 36.184L161.437 34.104C159.859 34.9573 158.067 35.384 156.061 35.384ZM156.061 32.056C157.149 32.056 158.152 31.8427 159.069 31.416L156.445 28.408L159.037 26.264L161.661 29.272C162.643 27.928 163.133 26.2853 163.133 24.344C163.133 22.104 162.483 20.2587 161.181 18.808C159.88 17.3573 158.173 16.632 156.061 16.632C153.928 16.632 152.211 17.3573 150.909 18.808C149.629 20.2587 148.989 22.104 148.989 24.344C148.989 26.584 149.629 28.4293 150.909 29.88C152.211 31.3307 153.928 32.056 156.061 32.056ZM184.274 35H180.914V32.952C179.464 34.5733 177.64 35.384 175.442 35.384C172.136 35.384 170.482 33.752 170.482 30.488V19.544H173.842V29.272C173.842 30.4027 174.109 31.2133 174.642 31.704C175.176 32.1733 175.944 32.408 176.946 32.408C177.757 32.408 178.514 32.216 179.218 31.832C179.922 31.448 180.488 30.968 180.914 30.392V19.544H184.274V35ZM195.774 35.384C193.428 35.384 191.486 34.6373 189.95 33.144C188.436 31.6293 187.678 29.6667 187.678 27.256C187.678 24.9947 188.414 23.0853 189.886 21.528C191.38 19.9493 193.257 19.16 195.518 19.16C197.801 19.16 199.636 19.9493 201.022 21.528C202.43 23.1067 203.134 25.1227 203.134 27.576V28.376H191.198C191.326 29.592 191.828 30.6053 192.702 31.416C193.577 32.2267 194.718 32.632 196.126 32.632C196.916 32.632 197.705 32.4827 198.494 32.184C199.305 31.8853 199.977 31.4693 200.51 30.936L202.046 33.144C200.489 34.6373 198.398 35.384 195.774 35.384ZM199.87 26.008C199.828 24.9413 199.433 23.992 198.686 23.16C197.961 22.328 196.905 21.912 195.518 21.912C194.196 21.912 193.161 22.328 192.414 23.16C191.668 23.9707 191.252 24.92 191.166 26.008H199.87ZM211.731 35.384C208.958 35.384 206.75 34.584 205.107 32.984L206.643 30.552C207.219 31.1493 207.998 31.6613 208.979 32.088C209.96 32.5147 210.931 32.728 211.891 32.728C212.872 32.728 213.619 32.536 214.131 32.152C214.664 31.768 214.931 31.2667 214.931 30.648C214.931 30.0933 214.611 29.6667 213.971 29.368C213.331 29.048 212.552 28.8027 211.635 28.632C210.718 28.44 209.8 28.216 208.883 27.96C207.966 27.6827 207.187 27.2027 206.547 26.52C205.907 25.8373 205.587 24.952 205.587 23.864C205.587 22.5413 206.131 21.432 207.219 20.536C208.307 19.6187 209.79 19.16 211.667 19.16C214.035 19.16 216.04 19.8853 217.683 21.336L216.275 23.704C215.784 23.1493 215.134 22.7013 214.323 22.36C213.512 22.0187 212.638 21.848 211.699 21.848C210.824 21.848 210.12 22.0293 209.587 22.392C209.075 22.7333 208.819 23.1813 208.819 23.736C208.819 24.1627 209.043 24.5147 209.491 24.792C209.96 25.048 210.536 25.24 211.219 25.368C211.923 25.496 212.68 25.6773 213.491 25.912C214.302 26.1253 215.048 26.3813 215.731 26.68C216.435 26.9787 217.011 27.4693 217.459 28.152C217.928 28.8133 218.163 29.624 218.163 30.584C218.163 31.992 217.598 33.144 216.467 34.04C215.336 34.936 213.758 35.384 211.731 35.384ZM226.185 35.384C224.883 35.384 223.891 35.0427 223.209 34.36C222.547 33.6773 222.217 32.696 222.217 31.416V22.488H219.657V19.544H222.217V15.32H225.577V19.544H228.713V22.488H225.577V30.584C225.577 31.1387 225.705 31.5867 225.961 31.928C226.217 32.248 226.579 32.408 227.049 32.408C227.731 32.408 228.233 32.2267 228.553 31.864L229.353 34.392C228.649 35.0533 227.593 35.384 226.185 35.384Z" fill="#2D3748"/>
<path fill-rule="evenodd" clip-rule="evenodd" d="M15.6112 22.649C16.0077 22.649 16.3546 22.3013 16.3546 21.904V19.1225C16.3546 18.7252 16.0077 18.3775 15.6112 18.3775H12.8359C12.4394 18.3775 12.0925 18.7252 12.0925 19.1225V21.904C12.0925 22.3013 12.4394 22.649 12.8359 22.649H15.6112ZM21.4593 18.3775C21.8557 18.3775 22.2026 18.7252 22.2026 19.1225V21.904C22.2026 22.3013 21.8557 22.649 21.4593 22.649H18.6839C18.2874 22.649 17.9405 22.3013 17.9405 21.904V19.1225C17.9405 18.7252 18.2874 18.3775 18.6839 18.3775H21.4593ZM27.3073 18.3775C27.7037 18.3775 28.0507 18.7252 28.0507 19.1225H28.0011V21.904C28.0011 22.3013 27.6542 22.649 27.2577 22.649H24.4824C24.0859 22.649 23.739 22.3013 23.739 21.904V19.1225C23.739 18.7252 24.0859 18.3775 24.4824 18.3775H27.3073ZM15.6112 24.0397C16.0077 24.0397 16.3546 24.3874 16.3546 24.7848V27.5662C16.3546 27.9636 16.0077 28.3113 15.6112 28.3113H12.8359C12.4394 28.3113 12.0925 27.9636 12.0925 27.5662V24.7848C12.0925 24.3874 12.4394 24.0397 12.8359 24.0397H15.6112ZM21.4593 24.0397C21.8557 24.0397 22.2026 24.3874 22.2026 24.7848V27.5662C22.2026 27.9636 21.8557 28.3113 21.4593 28.3113H18.6839C18.2874 28.3113 17.9405 27.9636 17.9405 27.5662V24.7848C17.9405 24.3874 18.2874 24.0397 18.6839 24.0397H21.4593ZM24.4824 24.0397H27.3073C27.7037 24.0397 28.0507 24.3874 28.0011 24.7848V27.5662C28.0011 27.9636 27.6542 28.3113 27.2577 28.3113H24.4824C24.0859 28.3113 23.739 27.9636 23.739 27.5662V24.7848C23.739 24.3874 24.0859 24.0397 24.4824 24.0397ZM6.98789 29.7517H9.76322C10.2093 29.7517 10.5066 30.0993 10.5066 30.4967V33.2781C10.5066 33.6755 10.1597 34.0232 9.76322 34.0232H6.98789C6.59141 34.0232 6.24449 33.6755 6.24449 33.2781V30.4967C6.24449 30.0993 6.59141 29.7517 6.98789 29.7517ZM9.76322 24.0397C10.1597 24.0397 10.5066 24.3874 10.5066 24.7848V27.5662C10.5066 27.9636 10.1597 28.3113 9.76322 28.3113H6.98789C6.59141 28.3113 6.24449 27.9636 6.24449 27.5662V24.7848C6.24449 24.3874 6.59141 24.0397 6.98789 24.0397H9.76322ZM18.6839 29.7517H21.4593C21.8557 29.7517 22.2026 30.0993 22.2026 30.4967V33.2781C22.2026 33.6755 21.8557 34.0232 21.4593 34.0232H18.6839C18.2874 34.0232 17.9405 33.6755 17.9405 33.2781V30.4967C17.9405 30.0993 18.2874 29.7517 18.6839 29.7517ZM12.8359 29.7517H15.6112C16.0077 29.7517 16.3546 30.0993 16.3546 30.4967V33.2781C16.3546 33.6755 16.0077 34.0232 15.6112 34.0232H12.8359C12.4394 34.0232 12.0925 33.6755 12.0925 33.2781V30.4967C12.0925 30.0993 12.4394 29.7517 12.8359 29.7517ZM29.587 19.1225C29.587 18.7252 29.9339 18.3775 30.3304 18.3775H33.1057C33.5022 18.3775 33.8491 18.7252 33.8491 19.1225V21.904C33.8491 22.3013 33.5022 22.649 33.1057 22.649H30.3304C29.9339 22.649 29.587 22.3013 29.587 21.904V19.1225ZM0 35.7119V8.69205C0 6.30795 1.98238 4.32119 4.46035 4.32119H9.36674V1.5894C9.36674 0.695364 10.0606 0 10.9526 0H13.4306C14.3227 0 15.0165 0.695364 15.0165 1.5894V4.32119H25.1267V1.5894C25.1267 0.695364 25.8205 0 26.7126 0H29.1905C30.0826 0 30.7764 0.695364 30.7764 1.5894V4.32119H35.6828C38.0617 4.32119 40.0441 6.25828 40.0441 8.69205V25.5795C39.0033 25.2815 37.8634 25.0828 36.674 25.0828V15.745H3.4196V35.7119C3.4196 36.2583 3.86564 36.7053 4.41079 36.7053H25.0275C25.0275 37.8477 25.2258 38.9901 25.5727 40.0828H4.36123C1.98238 40.0828 0 38.1457 0 35.7119Z" fill="#9E1068"/>
<path fill-rule="evenodd" clip-rule="evenodd" d="M36.6245 45C41.2335 45 45 41.2252 45 36.606C45 31.9867 41.2335 28.2119 36.6245 28.2119C32.0154 28.2119 28.2489 31.9867 28.2489 36.606C28.2489 41.2252 32.0154 45 36.6245 45ZM39.2511 33.1788L40.837 34.7682L37.12 38.4934L35.4846 40.0828L33.8987 38.4437L32.3623 36.904L34.0474 35.3146L35.5837 36.8543L39.2511 33.1788Z" fill="#A0D911"/>
</svg>
