<svg width="45" height="45" viewBox="0 0 45 45" fill="none" xmlns="http://www.w3.org/2000/svg">
<path fill-rule="evenodd" clip-rule="evenodd" d="M15.6112 22.649C16.0077 22.649 16.3546 22.3013 16.3546 21.904V19.1225C16.3546 18.7252 16.0077 18.3775 15.6112 18.3775H12.8359C12.4394 18.3775 12.0925 18.7252 12.0925 19.1225V21.904C12.0925 22.3013 12.4394 22.649 12.8359 22.649H15.6112ZM21.4593 18.3775C21.8557 18.3775 22.2026 18.7252 22.2026 19.1225V21.904C22.2026 22.3013 21.8557 22.649 21.4593 22.649H18.6839C18.2874 22.649 17.9405 22.3013 17.9405 21.904V19.1225C17.9405 18.7252 18.2874 18.3775 18.6839 18.3775H21.4593ZM27.3073 18.3775C27.7037 18.3775 28.0507 18.7252 28.0507 19.1225H28.0011V21.904C28.0011 22.3013 27.6542 22.649 27.2577 22.649H24.4824C24.0859 22.649 23.739 22.3013 23.739 21.904V19.1225C23.739 18.7252 24.0859 18.3775 24.4824 18.3775H27.3073ZM15.6112 24.0397C16.0077 24.0397 16.3546 24.3874 16.3546 24.7848V27.5662C16.3546 27.9636 16.0077 28.3113 15.6112 28.3113H12.8359C12.4394 28.3113 12.0925 27.9636 12.0925 27.5662V24.7848C12.0925 24.3874 12.4394 24.0397 12.8359 24.0397H15.6112ZM21.4593 24.0397C21.8557 24.0397 22.2026 24.3874 22.2026 24.7848V27.5662C22.2026 27.9636 21.8557 28.3113 21.4593 28.3113H18.6839C18.2874 28.3113 17.9405 27.9636 17.9405 27.5662V24.7848C17.9405 24.3874 18.2874 24.0397 18.6839 24.0397H21.4593ZM24.4824 24.0397H27.3073C27.7037 24.0397 28.0507 24.3874 28.0011 24.7848V27.5662C28.0011 27.9636 27.6542 28.3113 27.2577 28.3113H24.4824C24.0859 28.3113 23.739 27.9636 23.739 27.5662V24.7848C23.739 24.3874 24.0859 24.0397 24.4824 24.0397ZM6.98789 29.7517H9.76322C10.2093 29.7517 10.5066 30.0993 10.5066 30.4967V33.2781C10.5066 33.6755 10.1597 34.0232 9.76322 34.0232H6.98789C6.59141 34.0232 6.24449 33.6755 6.24449 33.2781V30.4967C6.24449 30.0993 6.59141 29.7517 6.98789 29.7517ZM9.76322 24.0397C10.1597 24.0397 10.5066 24.3874 10.5066 24.7848V27.5662C10.5066 27.9636 10.1597 28.3113 9.76322 28.3113H6.98789C6.59141 28.3113 6.24449 27.9636 6.24449 27.5662V24.7848C6.24449 24.3874 6.59141 24.0397 6.98789 24.0397H9.76322ZM18.6839 29.7517H21.4593C21.8557 29.7517 22.2026 30.0993 22.2026 30.4967V33.2781C22.2026 33.6755 21.8557 34.0232 21.4593 34.0232H18.6839C18.2874 34.0232 17.9405 33.6755 17.9405 33.2781V30.4967C17.9405 30.0993 18.2874 29.7517 18.6839 29.7517ZM12.8359 29.7517H15.6112C16.0077 29.7517 16.3546 30.0993 16.3546 30.4967V33.2781C16.3546 33.6755 16.0077 34.0232 15.6112 34.0232H12.8359C12.4394 34.0232 12.0925 33.6755 12.0925 33.2781V30.4967C12.0925 30.0993 12.4394 29.7517 12.8359 29.7517ZM29.587 19.1225C29.587 18.7252 29.9339 18.3775 30.3304 18.3775H33.1057C33.5022 18.3775 33.8491 18.7252 33.8491 19.1225V21.904C33.8491 22.3013 33.5022 22.649 33.1057 22.649H30.3304C29.9339 22.649 29.587 22.3013 29.587 21.904V19.1225ZM0 35.7119V8.69205C0 6.30795 1.98238 4.32119 4.46035 4.32119H9.36674V1.5894C9.36674 0.695364 10.0606 0 10.9526 0H13.4306C14.3227 0 15.0165 0.695364 15.0165 1.5894V4.32119H25.1267V1.5894C25.1267 0.695364 25.8205 0 26.7126 0H29.1905C30.0826 0 30.7764 0.695364 30.7764 1.5894V4.32119H35.6828C38.0617 4.32119 40.0441 6.25828 40.0441 8.69205V25.5795C39.0033 25.2815 37.8634 25.0828 36.674 25.0828V15.745H3.4196V35.7119C3.4196 36.2583 3.86564 36.7053 4.41079 36.7053H25.0275C25.0275 37.8477 25.2258 38.9901 25.5727 40.0828H4.36123C1.98238 40.0828 0 38.1457 0 35.7119Z" fill="#9E1068"/>
<path fill-rule="evenodd" clip-rule="evenodd" d="M36.6245 45C41.2335 45 45 41.2252 45 36.606C45 31.9867 41.2335 28.2119 36.6245 28.2119C32.0154 28.2119 28.2489 31.9867 28.2489 36.606C28.2489 41.2252 32.0154 45 36.6245 45ZM39.2511 33.1788L40.837 34.7682L37.12 38.4934L35.4846 40.0828L33.8987 38.4437L32.3623 36.904L34.0474 35.3146L35.5837 36.8543L39.2511 33.1788Z" fill="#A0D911"/>
</svg>
