<svg width="461" height="92" viewBox="0 0 461 92" fill="none" xmlns="http://www.w3.org/2000/svg">
<path d="M132.112 70H110.544V27.312H131.536C135.333 27.312 138.299 28.3573 140.432 30.448C142.608 32.496 143.696 35.0773 143.696 38.192C143.696 40.752 142.971 42.928 141.52 44.72C140.112 46.4693 138.363 47.5573 136.272 47.984C138.576 48.3253 140.517 49.52 142.096 51.568C143.717 53.5733 144.528 55.8773 144.528 58.48C144.528 61.8933 143.419 64.6667 141.2 66.8C139.024 68.9333 135.995 70 132.112 70ZM130 44.976C131.877 44.976 133.349 44.464 134.416 43.44C135.483 42.416 136.016 41.0933 136.016 39.472C136.016 37.808 135.483 36.464 134.416 35.44C133.349 34.416 131.877 33.904 130 33.904H118.032V44.976H130ZM130.32 63.408C132.368 63.408 133.968 62.896 135.12 61.872C136.272 60.8053 136.848 59.3333 136.848 57.456C136.848 55.792 136.272 54.4053 135.12 53.296C133.968 52.144 132.368 51.568 130.32 51.568H118.032V63.408H130.32ZM165.804 70.768C161.025 70.768 157.185 69.2107 154.284 66.096C151.383 62.9387 149.932 59.0773 149.932 54.512C149.932 49.9467 151.383 46.1067 154.284 42.992C157.185 39.8773 161.025 38.32 165.804 38.32C170.625 38.32 174.487 39.8773 177.388 42.992C180.289 46.1067 181.74 49.9467 181.74 54.512C181.74 59.12 180.289 62.9813 177.388 66.096C174.487 69.2107 170.625 70.768 165.804 70.768ZM165.804 64.816C168.577 64.816 170.753 63.8347 172.332 61.872C173.953 59.8667 174.764 57.4133 174.764 54.512C174.764 51.6533 173.953 49.2427 172.332 47.28C170.753 45.2747 168.577 44.272 165.804 44.272C163.073 44.272 160.897 45.2747 159.276 47.28C157.697 49.2427 156.908 51.6533 156.908 54.512C156.908 57.4133 157.697 59.8667 159.276 61.872C160.897 63.8347 163.073 64.816 165.804 64.816ZM202.492 70.768C197.713 70.768 193.873 69.2107 190.972 66.096C188.07 62.9387 186.62 59.0773 186.62 54.512C186.62 49.9467 188.07 46.1067 190.972 42.992C193.873 39.8773 197.713 38.32 202.492 38.32C207.313 38.32 211.174 39.8773 214.076 42.992C216.977 46.1067 218.428 49.9467 218.428 54.512C218.428 59.12 216.977 62.9813 214.076 66.096C211.174 69.2107 207.313 70.768 202.492 70.768ZM202.492 64.816C205.265 64.816 207.441 63.8347 209.02 61.872C210.641 59.8667 211.452 57.4133 211.452 54.512C211.452 51.6533 210.641 49.2427 209.02 47.28C207.441 45.2747 205.265 44.272 202.492 44.272C199.761 44.272 197.585 45.2747 195.964 47.28C194.385 49.2427 193.595 51.6533 193.595 54.512C193.595 57.4133 194.385 59.8667 195.964 61.872C197.585 63.8347 199.761 64.816 202.492 64.816ZM254.155 70H245.707L236.235 57.264L231.947 61.68V70H225.227V27.312H231.947V54L245.579 39.088H253.899L241.035 53.104L254.155 70ZM284.515 70H277.795V66.672C275.405 69.4027 272.077 70.768 267.811 70.768C264.995 70.768 262.499 69.872 260.323 68.08C258.147 66.2453 257.059 63.728 257.059 60.528C257.059 57.2427 258.125 54.7467 260.259 53.04C262.435 51.3333 264.952 50.48 267.811 50.48C272.205 50.48 275.533 51.8027 277.795 54.448V49.84C277.795 48.048 277.133 46.64 275.811 45.616C274.488 44.592 272.739 44.08 270.562 44.08C267.107 44.08 264.056 45.3813 261.411 47.984L258.659 43.312C262.157 39.984 266.488 38.32 271.651 38.32C275.448 38.32 278.541 39.216 280.931 41.008C283.32 42.8 284.515 45.6373 284.515 49.52V70ZM270.435 66.16C273.805 66.16 276.259 65.0933 277.795 62.96V58.288C276.259 56.1547 273.805 55.088 270.435 55.088C268.515 55.088 266.936 55.6 265.699 56.624C264.461 57.648 263.843 58.992 263.843 60.656C263.843 62.32 264.461 63.664 265.699 64.688C266.936 65.6693 268.515 66.16 270.435 66.16ZM313.323 70.768C306.966 70.768 301.739 68.6987 297.643 64.56C293.547 60.3787 291.499 55.088 291.499 48.688C291.499 42.288 293.547 37.0187 297.643 32.88C301.739 28.6987 306.966 26.608 313.323 26.608C319.68 26.608 324.907 28.6987 329.003 32.88C333.099 37.0187 335.147 42.288 335.147 48.688C335.147 54.7893 333.248 59.9093 329.451 64.048L332.971 68.016L327.787 72.368L324.075 68.208C320.918 69.9147 317.334 70.768 313.323 70.768ZM313.323 64.112C315.499 64.112 317.504 63.6853 319.339 62.832L314.091 56.816L319.275 52.528L324.523 58.544C326.486 55.856 327.467 52.5707 327.467 48.688C327.467 44.208 326.166 40.5173 323.563 37.616C320.96 34.7147 317.547 33.264 313.323 33.264C309.056 33.264 305.622 34.7147 303.019 37.616C300.459 40.5173 299.179 44.208 299.179 48.688C299.179 53.168 300.459 56.8587 303.019 59.76C305.622 62.6613 309.056 64.112 313.323 64.112ZM369.749 70H363.029V65.904C360.127 69.1467 356.479 70.768 352.085 70.768C345.471 70.768 342.165 67.504 342.165 60.976V39.088H348.885V58.544C348.885 60.8053 349.418 62.4267 350.485 63.408C351.551 64.3467 353.087 64.816 355.093 64.816C356.714 64.816 358.229 64.432 359.637 63.664C361.045 62.896 362.175 61.936 363.029 60.784V39.088H369.749V70ZM392.749 70.768C388.056 70.768 384.173 69.2747 381.101 66.288C378.072 63.2587 376.557 59.3333 376.557 54.512C376.557 49.9893 378.029 46.1707 380.973 43.056C383.96 39.8987 387.714 38.32 392.237 38.32C396.802 38.32 400.472 39.8987 403.245 43.056C406.061 46.2133 407.469 50.2453 407.469 55.152V56.752H383.597C383.853 59.184 384.856 61.2107 386.605 62.832C388.354 64.4533 390.637 65.264 393.453 65.264C395.032 65.264 396.61 64.9653 398.189 64.368C399.81 63.7707 401.154 62.9387 402.221 61.872L405.293 66.288C402.178 69.2747 397.997 70.768 392.749 70.768ZM400.941 52.016C400.856 49.8827 400.066 47.984 398.573 46.32C397.122 44.656 395.01 43.824 392.237 43.824C389.592 43.824 387.522 44.656 386.029 46.32C384.536 47.9413 383.704 49.84 383.533 52.016H400.941ZM424.662 70.768C419.115 70.768 414.699 69.168 411.414 65.968L414.486 61.104C415.638 62.2987 417.195 63.3227 419.158 64.176C421.121 65.0293 423.062 65.456 424.982 65.456C426.945 65.456 428.438 65.072 429.462 64.304C430.529 63.536 431.062 62.5333 431.062 61.296C431.062 60.1867 430.422 59.3333 429.142 58.736C427.862 58.096 426.305 57.6053 424.47 57.264C422.635 56.88 420.801 56.432 418.966 55.92C417.131 55.3653 415.574 54.4053 414.294 53.04C413.014 51.6747 412.374 49.904 412.374 47.728C412.374 45.0827 413.462 42.864 415.638 41.072C417.814 39.2373 420.779 38.32 424.534 38.32C429.27 38.32 433.281 39.7707 436.566 42.672L433.75 47.408C432.769 46.2987 431.467 45.4027 429.846 44.72C428.225 44.0373 426.475 43.696 424.598 43.696C422.849 43.696 421.441 44.0587 420.374 44.784C419.35 45.4667 418.838 46.3627 418.838 47.472C418.838 48.3253 419.286 49.0293 420.182 49.584C421.121 50.096 422.273 50.48 423.638 50.736C425.046 50.992 426.561 51.3547 428.182 51.824C429.803 52.2507 431.297 52.7627 432.662 53.36C434.07 53.9573 435.222 54.9387 436.118 56.304C437.057 57.6267 437.526 59.248 437.526 61.168C437.526 63.984 436.395 66.288 434.134 68.08C431.873 69.872 428.715 70.768 424.662 70.768ZM453.57 70.768C450.967 70.768 448.983 70.0853 447.618 68.72C446.295 67.3547 445.634 65.392 445.634 62.832V44.976H440.514V39.088H445.634V30.64H452.354V39.088H458.626V44.976H452.354V61.168C452.354 62.2773 452.61 63.1733 453.122 63.856C453.634 64.496 454.359 64.816 455.298 64.816C456.663 64.816 457.666 64.4533 458.306 63.728L459.906 68.784C458.498 70.1067 456.386 70.768 453.57 70.768Z" fill="white"/>
<path fill-rule="evenodd" clip-rule="evenodd" d="M32.1 46.3C32.9 46.3 33.6 45.6 33.6 44.8V39.2C33.6 38.4 32.9 37.7 32.1 37.7H26.5C25.7 37.7 25 38.4 25 39.2V44.8C25 45.6 25.7 46.3 26.5 46.3H32.1ZM43.9 37.7C44.7 37.7 45.4 38.4 45.4 39.2V44.8C45.4 45.6 44.7 46.3 43.9 46.3H38.3C37.5 46.3 36.8 45.6 36.8 44.8V39.2C36.8 38.4 37.5 37.7 38.3 37.7H43.9ZM55.7 37.7C56.5 37.7 57.2 38.4 57.2 39.2H57.1V44.8C57.1 45.6 56.4 46.3 55.6 46.3H50C49.2 46.3 48.5 45.6 48.5 44.8V39.2C48.5 38.4 49.2 37.7 50 37.7H55.7ZM32.1 49.1C32.9 49.1 33.6 49.8 33.6 50.6V56.2C33.6 57 32.9 57.7 32.1 57.7H26.5C25.7 57.7 25 57 25 56.2V50.6C25 49.8 25.7 49.1 26.5 49.1H32.1ZM43.9 49.1C44.7 49.1 45.4 49.8 45.4 50.6V56.2C45.4 57 44.7 57.7 43.9 57.7H38.3C37.5 57.7 36.8 57 36.8 56.2V50.6C36.8 49.8 37.5 49.1 38.3 49.1H43.9ZM50 49.1H55.7C56.5 49.1 57.2 49.8 57.1 50.6V56.2C57.1 57 56.4 57.7 55.6 57.7H50C49.2 57.7 48.5 57 48.5 56.2V50.6C48.5 49.8 49.2 49.1 50 49.1ZM14.7 60.6H20.3C21.2 60.6 21.8 61.3 21.8 62.1V67.7C21.8 68.5 21.1 69.2 20.3 69.2H14.7C13.9 69.2 13.2 68.5 13.2 67.7V62.1C13.2 61.3 13.9 60.6 14.7 60.6ZM20.3 49.1C21.1 49.1 21.8 49.8 21.8 50.6V56.2C21.8 57 21.1 57.7 20.3 57.7H14.7C13.9 57.7 13.2 57 13.2 56.2V50.6C13.2 49.8 13.9 49.1 14.7 49.1H20.3ZM38.3 60.6H43.9C44.7 60.6 45.4 61.3 45.4 62.1V67.7C45.4 68.5 44.7 69.2 43.9 69.2H38.3C37.5 69.2 36.8 68.5 36.8 67.7V62.1C36.8 61.3 37.5 60.6 38.3 60.6ZM26.5 60.6H32.1C32.9 60.6 33.6 61.3 33.6 62.1V67.7C33.6 68.5 32.9 69.2 32.1 69.2H26.5C25.7 69.2 25 68.5 25 67.7V62.1C25 61.3 25.7 60.6 26.5 60.6ZM60.3 39.2C60.3 38.4 61 37.7 61.8 37.7H67.4C68.2 37.7 68.9 38.4 68.9 39.2V44.8C68.9 45.6 68.2 46.3 67.4 46.3H61.8C61 46.3 60.3 45.6 60.3 44.8V39.2ZM0.599998 72.6V18.2C0.599998 13.4 4.6 9.40001 9.6 9.40001H19.5V3.90001C19.5 2.10001 20.9 0.700012 22.7 0.700012H27.7C29.5 0.700012 30.9 2.10001 30.9 3.90001V9.40001H51.3V3.90001C51.3 2.10001 52.7 0.700012 54.5 0.700012H59.5C61.3 0.700012 62.7 2.10001 62.7 3.90001V9.40001H72.6C77.4 9.40001 81.4 13.3 81.4 18.2V52.2C79.3 51.6 77 51.2 74.6 51.2V32.4H7.5V72.6C7.5 73.7 8.4 74.6 9.5 74.6H51.1C51.1 76.9 51.5 79.2 52.2 81.4H9.4C4.6 81.4 0.599998 77.5 0.599998 72.6Z" fill="#9E1068"/>
<path fill-rule="evenodd" clip-rule="evenodd" d="M74.5 91.3C83.8 91.3 91.4 83.7 91.4 74.4C91.4 65.1 83.8 57.5 74.5 57.5C65.2 57.5 57.6 65.1 57.6 74.4C57.6 83.7 65.2 91.3 74.5 91.3ZM79.8 67.5L83 70.7L75.5 78.2L72.2 81.4L69 78.1L65.9 75L69.3 71.8L72.4 74.9L79.8 67.5Z" fill="#A0D911"/>
</svg>
